<svg id="visual" viewBox="0 0 960 540" width="960" height="540" xmlns="http://www.w3.org/2000/svg" xmlns:xlink="http://www.w3.org/1999/xlink" version="1.1"><rect x="0" y="0" width="960" height="540" fill="#140021"></rect><path d="M0 211L56 211L56 183L113 183L113 212L169 212L169 241L226 241L226 297L282 297L282 288L339 288L339 237L395 237L395 233L452 233L452 195L508 195L508 286L565 286L565 301L621 301L621 262L678 262L678 189L734 189L734 257L791 257L791 178L847 178L847 288L904 288L904 257L960 257L960 190L960 541L960 541L904 541L904 541L847 541L847 541L791 541L791 541L734 541L734 541L678 541L678 541L621 541L621 541L565 541L565 541L508 541L508 541L452 541L452 541L395 541L395 541L339 541L339 541L282 541L282 541L226 541L226 541L169 541L169 541L113 541L113 541L56 541L56 541L0 541Z" fill="#6030b1"></path><path d="M0 296L56 296L56 317L113 317L113 375L169 375L169 287L226 287L226 389L282 389L282 362L339 362L339 297L395 297L395 288L452 288L452 294L508 294L508 351L565 351L565 308L621 308L621 391L678 391L678 375L734 375L734 366L791 366L791 370L847 370L847 328L904 328L904 281L960 281L960 384L960 541L960 541L904 541L904 541L847 541L847 541L791 541L791 541L734 541L734 541L678 541L678 541L621 541L621 541L565 541L565 541L508 541L508 541L452 541L452 541L395 541L395 541L339 541L339 541L282 541L282 541L226 541L226 541L169 541L169 541L113 541L113 541L56 541L56 541L0 541Z" fill="#5b1da0"></path><path d="M0 398L56 398L56 419L113 419L113 431L169 431L169 445L226 445L226 418L282 418L282 471L339 471L339 412L395 412L395 421L452 421L452 388L508 388L508 425L565 425L565 439L621 439L621 382L678 382L678 421L734 421L734 385L791 385L791 476L847 476L847 429L904 429L904 447L960 447L960 419L960 541L960 541L904 541L904 541L847 541L847 541L791 541L791 541L734 541L734 541L678 541L678 541L621 541L621 541L565 541L565 541L508 541L508 541L452 541L452 541L395 541L395 541L339 541L339 541L282 541L282 541L226 541L226 541L169 541L169 541L113 541L113 541L56 541L56 541L0 541Z" fill="#560090"></path></svg>