<svg id="visual" viewBox="0 0 960 540" width="960" height="540" xmlns="http://www.w3.org/2000/svg" xmlns:xlink="http://www.w3.org/1999/xlink" version="1.1"><rect x="0" y="0" width="960" height="540" fill="#001220"></rect><path d="M0 372L22.8 376.8C45.7 381.7 91.3 391.3 137 387.7C182.7 384 228.3 367 274 364C319.7 361 365.3 372 411.2 366.8C457 361.7 503 340.3 548.8 332.7C594.7 325 640.3 331 686 340C731.7 349 777.3 361 823 360.3C868.7 359.7 914.3 346.3 937.2 339.7L960 333L960 541L937.2 541C914.3 541 868.7 541 823 541C777.3 541 731.7 541 686 541C640.3 541 594.7 541 548.8 541C503 541 457 541 411.2 541C365.3 541 319.7 541 274 541C228.3 541 182.7 541 137 541C91.3 541 45.7 541 22.8 541L0 541Z" fill="#6030b1"></path><path d="M0 374L22.8 376.2C45.7 378.3 91.3 382.7 137 390.5C182.7 398.3 228.3 409.7 274 411.7C319.7 413.7 365.3 406.3 411.2 407.8C457 409.3 503 419.7 548.8 414.5C594.7 409.3 640.3 388.7 686 376C731.7 363.3 777.3 358.7 823 360.2C868.7 361.7 914.3 369.3 937.2 373.2L960 377L960 541L937.2 541C914.3 541 868.7 541 823 541C777.3 541 731.7 541 686 541C640.3 541 594.7 541 548.8 541C503 541 457 541 411.2 541C365.3 541 319.7 541 274 541C228.3 541 182.7 541 137 541C91.3 541 45.7 541 22.8 541L0 541Z" fill="#553ab7"></path><path d="M0 394L22.8 403.5C45.7 413 91.3 432 137 442.3C182.7 452.7 228.3 454.3 274 454.3C319.7 454.3 365.3 452.7 411.2 451.2C457 449.7 503 448.3 548.8 448.3C594.7 448.3 640.3 449.7 686 443.3C731.7 437 777.3 423 823 416.8C868.7 410.7 914.3 412.3 937.2 413.2L960 414L960 541L937.2 541C914.3 541 868.7 541 823 541C777.3 541 731.7 541 686 541C640.3 541 594.7 541 548.8 541C503 541 457 541 411.2 541C365.3 541 319.7 541 274 541C228.3 541 182.7 541 137 541C91.3 541 45.7 541 22.8 541L0 541Z" fill="#4942bd"></path><path d="M0 481L22.8 474.7C45.7 468.3 91.3 455.7 137 448.3C182.7 441 228.3 439 274 443.3C319.7 447.7 365.3 458.3 411.2 465C457 471.7 503 474.3 548.8 468.8C594.7 463.3 640.3 449.7 686 447.5C731.7 445.3 777.3 454.7 823 460.7C868.7 466.7 914.3 469.3 937.2 470.7L960 472L960 541L937.2 541C914.3 541 868.7 541 823 541C777.3 541 731.7 541 686 541C640.3 541 594.7 541 548.8 541C503 541 457 541 411.2 541C365.3 541 319.7 541 274 541C228.3 541 182.7 541 137 541C91.3 541 45.7 541 22.8 541L0 541Z" fill="#3a49c2"></path><path d="M0 497L22.8 494.8C45.7 492.7 91.3 488.3 137 487.7C182.7 487 228.3 490 274 494.7C319.7 499.3 365.3 505.7 411.2 503.3C457 501 503 490 548.8 488.2C594.7 486.3 640.3 493.7 686 495C731.7 496.3 777.3 491.7 823 489C868.7 486.3 914.3 485.7 937.2 485.3L960 485L960 541L937.2 541C914.3 541 868.7 541 823 541C777.3 541 731.7 541 686 541C640.3 541 594.7 541 548.8 541C503 541 457 541 411.2 541C365.3 541 319.7 541 274 541C228.3 541 182.7 541 137 541C91.3 541 45.7 541 22.8 541L0 541Z" fill="#2450c7"></path></svg>