<?xml version="1.0" encoding="UTF-8"?>
<svg xmlns="http://www.w3.org/2000/svg" xmlns:xlink="http://www.w3.org/1999/xlink" width="50px" height="50px" viewBox="0 0 50 50" version="1.1">
<g id="surface1">
<path style=" stroke:none;fill-rule:nonzero;fill:rgb(86.666667%,29.019608%,37.254902%);fill-opacity:1;" d="M 25 8.929688 C 22.039062 8.929688 19.640625 11.328125 19.640625 14.289062 C 19.640625 17.242188 22.039062 19.640625 25 19.640625 C 27.960938 19.640625 30.359375 17.242188 30.359375 14.289062 C 30.359375 11.328125 27.960938 8.929688 25 8.929688 "/>
<path style=" stroke:none;fill-rule:nonzero;fill:rgb(86.666667%,29.019608%,37.254902%);fill-opacity:1;" d="M 15.179688 19.640625 C 12.21875 19.640625 9.820312 22.039062 9.820312 25 C 9.820312 27.960938 12.21875 30.359375 15.179688 30.359375 C 18.140625 30.359375 20.539062 27.960938 20.539062 25 C 20.539062 22.039062 18.140625 19.640625 15.179688 19.640625 "/>
<path style=" stroke:none;fill-rule:nonzero;fill:rgb(86.666667%,29.019608%,37.254902%);fill-opacity:1;" d="M 5.359375 30.359375 C 2.398438 30.359375 0 32.757812 0 35.710938 C 0 38.671875 2.398438 41.070312 5.359375 41.070312 C 8.3125 41.070312 10.710938 38.671875 10.710938 35.710938 C 10.710938 32.757812 8.3125 30.359375 5.359375 30.359375 "/>
<path style=" stroke:none;fill-rule:nonzero;fill:rgb(86.666667%,29.019608%,37.254902%);fill-opacity:1;" d="M 34.820312 19.640625 C 31.859375 19.640625 29.460938 22.039062 29.460938 25 C 29.460938 27.960938 31.859375 30.359375 34.820312 30.359375 C 37.78125 30.359375 40.179688 27.960938 40.179688 25 C 40.179688 22.039062 37.78125 19.640625 34.820312 19.640625 "/>
<path style=" stroke:none;fill-rule:nonzero;fill:rgb(86.666667%,29.019608%,37.254902%);fill-opacity:1;" d="M 44.640625 30.359375 C 41.6875 30.359375 39.289062 32.757812 39.289062 35.710938 C 39.289062 38.671875 41.6875 41.070312 44.640625 41.070312 C 47.601562 41.070312 50 38.671875 50 35.710938 C 50 32.757812 47.601562 30.359375 44.640625 30.359375 "/>
</g>
</svg>
