<svg id="visual" viewBox="0 0 960 540" width="960" height="540" xmlns="http://www.w3.org/2000/svg" xmlns:xlink="http://www.w3.org/1999/xlink" version="1.1"><rect x="0" y="0" width="960" height="540" fill="#FFFFFF"></rect><path d="M0 424L22.8 429.3C45.7 434.7 91.3 445.3 137 445C182.7 444.7 228.3 433.3 274 421.8C319.7 410.3 365.3 398.7 411.2 397.2C457 395.7 503 404.3 548.8 401.5C594.7 398.7 640.3 384.3 686 377.3C731.7 370.3 777.3 370.7 823 380.8C868.7 391 914.3 411 937.2 421L960 431L960 541L937.2 541C914.3 541 868.7 541 823 541C777.3 541 731.7 541 686 541C640.3 541 594.7 541 548.8 541C503 541 457 541 411.2 541C365.3 541 319.7 541 274 541C228.3 541 182.7 541 137 541C91.3 541 45.7 541 22.8 541L0 541Z" fill="#6030b1" stroke-linecap="round" stroke-linejoin="miter"></path></svg>